<?xml version="1.0" standalone="no"?>
<!DOCTYPE svg PUBLIC "-//W3C//DTD SVG 1.1//EN" "http://www.w3.org/Graphics/SVG/1.1/DTD/svg11.dtd" >
<svg xmlns="http://www.w3.org/2000/svg">
<metadata>
Created by FontForge 20120731 at Tue Oct 25 19:43:06 2016
 By admin
</metadata>
<defs>
<font id="iconfont" horiz-adv-x="1024" >
  <font-face 
    font-family="iconfont"
    font-weight="500"
    font-stretch="normal"
    units-per-em="1024"
    panose-1="2 0 6 3 0 0 0 0 0 0"
    ascent="896"
    descent="-128"
    x-height="792"
    bbox="-0.5 -161 1299 896.286"
    underline-thickness="50"
    underline-position="-100"
    unicode-range="U+0078-E64A"
  />
<missing-glyph horiz-adv-x="374" 
d="M34 0v682h272v-682h-272zM68 34h204v614h-204v-614z" />
    <glyph glyph-name=".notdef" horiz-adv-x="374" 
d="M34 0v682h272v-682h-272zM68 34h204v614h-204v-614z" />
    <glyph glyph-name=".null" horiz-adv-x="0" 
 />
    <glyph glyph-name="nonmarkingreturn" horiz-adv-x="341" 
 />
    <glyph glyph-name="x" unicode="x" horiz-adv-x="1001" 
d="M281 543q-27 -1 -53 -1h-83q-18 0 -36.5 -6t-32.5 -18.5t-23 -32t-9 -45.5v-76h912v41q0 16 -0.5 30t-0.5 18q0 13 -5 29t-17 29.5t-31.5 22.5t-49.5 9h-133v-97h-438v97zM955 310v-52q0 -23 0.5 -52t0.5 -58t-10.5 -47.5t-26 -30t-33 -16t-31.5 -4.5q-14 -1 -29.5 -0.5
t-29.5 0.5h-32l-45 128h-439l-44 -128h-29h-34q-20 0 -45 1q-25 0 -41 9.5t-25.5 23t-13.5 29.5t-4 30v167h911zM163 247q-12 0 -21 -8.5t-9 -21.5t9 -21.5t21 -8.5q13 0 22 8.5t9 21.5t-9 21.5t-22 8.5zM316 123q-8 -26 -14 -48q-5 -19 -10.5 -37t-7.5 -25t-3 -15t1 -14.5
t9.5 -10.5t21.5 -4h37h67h81h80h64h36q23 0 34 12t2 38q-5 13 -9.5 30.5t-9.5 34.5q-5 19 -11 39h-368zM336 498v228q0 11 2.5 23t10 21.5t20.5 15.5t34 6h188q31 0 51.5 -14.5t20.5 -52.5v-227h-327z" />
    <glyph glyph-name="uniE600" unicode="&#xe600;" 
d="M107 683zM40 683q0 28 19.5 47.5t47.5 19.5t47.5 -19.5t19.5 -47.5t-19.5 -47.5t-47.5 -19.5t-47.5 19.5t-19.5 47.5zM981 750h-683q-7 0 -11.5 -4.5t-4.5 -11.5v-102q0 -7 4.5 -11.5t11.5 -4.5h683q7 0 11.5 5t4.5 11v102q0 7 -5 11.5t-11 4.5zM96 398zM29 398.5
q0 27.5 19.5 47.5t47.5 20t47.5 -20t19.5 -47.5t-19.5 -47.5t-47.5 -20t-47.5 20t-19.5 47.5zM968 466h-683q-7 0 -11.5 -5t-4.5 -11v-103q0 -7 5 -11.5t11 -4.5h683q7 0 11.5 5t4.5 11v103q0 6 -4.5 11t-11.5 5zM96 101zM29 101q0 28 19.5 47.5t47.5 19.5t47.5 -19.5
t19.5 -47.5t-19.5 -47.5t-47.5 -19.5t-47.5 19.5t-19.5 47.5zM968 168h-683q-7 0 -11.5 -5t-4.5 -11v-102q0 -7 5 -11.5t11 -4.5h683q7 0 11.5 4.5t4.5 11.5v102q0 6 -4.5 11t-11.5 5z" />
    <glyph glyph-name="uniE601" unicode="&#xe601;" 
d="M960 437q0 -17 -12.5 -29.5t-30.5 -12.5h-128v-214q0 -17 -12.5 -29.5t-29.5 -12.5h-470q-17 0 -29.5 12.5t-12.5 29.5v214h-128q-18 0 -30.5 12.5t-12.5 29.5q0 21 13 30l405 406q13 12 30 12q20 0 30 -12l405 -406q13 -9 13 -30zM512 783l-303 -303h68q18 0 30.5 -12.5
t12.5 -30.5v-213h384v213q0 18 12.5 30.5t30.5 12.5h68zM277 96h470q17 0 29.5 -12.5t12.5 -30t-12.5 -30t-29.5 -12.5h-470q-17 0 -29.5 12.5t-12.5 30t12.5 30t29.5 12.5zM277 -32h470q17 0 29.5 -12.5t12.5 -30t-12.5 -30t-29.5 -12.5h-470q-17 0 -29.5 12.5t-12.5 30
t12.5 30t29.5 12.5z" />
    <glyph glyph-name="uniE602" unicode="&#xe602;" 
d="M274 365q23 4 38 18t21.5 29t8.5 35t1 29.5t-2 20.5q-3 28 -31 57t-63 26q-19 -2 -33.5 -12.5t-22 -24.5t-12.5 -28t-6 -24l-1 -9q-5 -24 3.5 -53.5t34.5 -50.5t64 -13zM360 200q-8 -22 -3 -38q4 -15 14 -22t19 -7l8 1h46v91h-46q-14 -4 -25.5 -12t-12.5 -13zM424 523
q34 0 57.5 33t23.5 79.5t-23.5 79.5t-57.5 33t-57.5 -33t-23.5 -79.5t23.5 -79.5t57.5 -33zM617 516q41 -6 70 27.5t35 74.5q6 35 -17 69.5t-56 41.5q-30 7 -63 -29t-37 -71q-5 -45 10.5 -76.5t57.5 -36.5zM763 238q-10 8 -27 21.5t-56 52t-63 71.5q-26 40 -59 56.5
t-62 11.5t-53.5 -20.5t-37.5 -37.5q-16 -25 -38 -48t-39.5 -37.5t-19.5 -16.5q-1 -1 -14.5 -11t-26.5 -22t-28 -33t-19.5 -44t0.5 -54q18 -81 90 -103l20 -4q54 3 123 18q35 7 64 5.5t47 -5t18 -4.5q3 -1 9 -2.5t23.5 -5t34.5 -5t39 0t40 7t34.5 19.5t25.5 35q12 29 14 55
t-4 43.5t-13.5 31t-14.5 19.5zM489 88h-114q-42 1 -60 42q-15 34 -8 72q8 27 25.5 44.5t30.5 20.5l12 3h69v69h45v-251zM671 88h-114q-20 1 -31 12t-13 21l-1 10v139h45v-113q2 -6 7.5 -11.5t10.5 -8.5l5 -3h46v136h45v-182zM854 436q0 11 -4.5 24.5t-14 29.5t-28.5 26.5
t-44 10.5q-81 0 -81 -110q0 -16 1 -27.5t6 -27t14.5 -25t27.5 -16t44 -6.5q14 1 25.5 4t19.5 10t14.5 13.5t9.5 17t5.5 17.5t3 18.5t1 16.5t0.5 14v10z" />
    <glyph glyph-name="uniE603" unicode="&#xe603;" 
d="M587 575v129q0 13 7.5 21t21.5 8h29q12 0 19.5 -7t7.5 -19q0 -4 1.5 -13t0.5 -14q0 -6 6 -6h85h85q24 0 24 -29v-35q0 -24 -24 -24h-170q-4 0 -7.5 -4t-3.5 -7q0 -23 1.5 -69.5t1.5 -72.5q0 -5 8 -5h50h59h50q12 0 17.5 -5.5t5.5 -17.5v-109v-129v-109q0 -23 -23 -23h-85
h-100h-85q-13 0 -21.5 8.5t-8.5 20.5v341q0 22 27 22h14q6 0 6 7v24v28v24q1 22 1 65zM774 232v45v45q0 18 -17 18h-112q-7 0 -12 -5t-5 -13v-181q0 -18 18 -18h111q17 0 17 17v92zM152 692q0 17 1 17q7 12 20 12h64h240q27 0 27 -26v-224v-224q0 -25 -26 -25h-36
q-26 0 -26 25v298v73q0 16 -15 16h-149q-8 0 -12.5 -5t-4.5 -13v-364q0 -30 -24 -30q-4 0 -16 0.5t-19 0.5q-24 -2 -24 23v94v208v144zM327 128q-1 -1 -6 -6.5t-7 -8.5q-43 -46 -106 -62q-18 -4 -38 -6q-7 0 -13 5.5t-7 11.5v54q2 17 22 23q71 18 98 84q11 35 11 52v98v115
v98q0 8 3.5 10.5t12.5 2.5h60q9 0 11.5 -2.5t2.5 -11.5v-311q0 -42 24 -78q31 -44 83 -57l9 -3q16 -5 17 -23v-46q0 -11 -7 -17t-17 -5q-91 8 -150 79l-2 2q-1 1 -1 2z" />
    <glyph glyph-name="uniE604" unicode="&#xe604;" 
d="M1018 394q-2 99 -42 190t-106.5 157.5t-157.5 106.5t-190 42q-106 2 -202.5 -38t-166 -109.5t-109.5 -166t-38 -202.5q2 -99 42 -190t106.5 -157.5t157.5 -106.5t190 -42q106 -2 202.5 38t166 109.5t109.5 166t38 202.5zM313 361q30 0 69.5 16t53.5 33q7 8 -7 10
q-6 1 -22 3q-31 2 -44.5 14.5t-19.5 43.5q-6 27 -5.5 65t6.5 49t19 12.5t18 -7.5q5 -7 6 -56q0 -15 0.5 -24t2.5 -18.5t4 -13.5t8 -8.5t12 -6t18.5 -2.5t24.5 -1t32 1q17 1 42 1.5t41.5 1t23.5 1.5q32 0 44 14.5t8 49.5q-4 32 -12 47t-25 21q-16 7 -83 8.5t-102 -4.5
q-26 -3 -30.5 -1.5t-4.5 13.5q0 15 7.5 21t32.5 11q27 6 93.5 5t89.5 -7q43 -11 56.5 -26.5t26.5 -67.5q7 -31 6.5 -49t-9.5 -40q-10 -24 -34.5 -32t-85.5 -8q-49 1 -59 -1.5t-19 -15.5q-10 -17 -43.5 -43t-52.5 -33q-116 -42 -126 -9q-5 16 5.5 24.5t33.5 8.5zM429 556
q8 9 80 8h15q56 -1 65 -3t7 -15v-3l-2 -18h-83q-56 0 -70 2t-16 10q-2 11 4 19zM471 169q-31 -22 -76.5 -41.5t-65.5 -19.5t-27.5 11t1.5 24t30 19q107 29 240 134q27 21 34.5 23.5t15.5 -7.5q7 -8 -0.5 -17t-53.5 -50q-38 -33 -38 -42q0 -8 -12 -8t-48 -26zM753 259
q-2 -31 -12.5 -50.5t-35.5 -42.5q-40 -36 -87.5 -51t-66.5 2q-12 12 -20 32t-4 29q2 7 6 7t18 -8q32 -16 71.5 -1t65.5 53t17 72t-45 34q-13 0 -19.5 3.5t-11.5 14.5q-9 20 -27 20.5t-39 -17.5q-100 -86 -182.5 -128t-103.5 -17q-6 9 -6.5 15t7.5 12t24.5 12t44.5 15
q42 12 114 60q50 33 62 44t10 22q-4 17 12 23q15 6 32 3q4 0 48 -5q58 -7 95.5 -52t32.5 -101z" />
    <glyph glyph-name="uniE605" unicode="&#xe605;" 
d="M959 501l-309 45l-139 280l-138 -280l-309 -45l224 -218l-53 -308l276 146l277 -146l-53 308zM511 190l-195 -103l37 218l-158 154l219 31l97 198l98 -198l218 -31l-158 -154l38 -218zM511 190z" />
    <glyph glyph-name="uniE606" unicode="&#xe606;" 
d="M959 501l-309 45l-139 280l-138 -280l-309 -45l224 -218l-53 -308l276 146l277 -146l-53 308z" />
    <glyph glyph-name="uniE607" unicode="&#xe607;" 
d="M510 -20l-352 376q-101 109 -96 220q2 27 9.5 52.5t17 42.5t21 32t16.5 20l8 8q76 66 162 66q113 0 214 -103q102 103 214 103q86 0 162 -65l8 -8q6 -6 17.5 -21t20.5 -32t17 -42.5t9 -52.5q6 -111 -96 -220zM175 684q-6 -5 -13.5 -14t-21.5 -38.5t-16 -59.5
q-3 -85 80 -173l306 -328l307 328q83 89 79 173q-1 30 -14.5 59t-23 39.5t-13.5 14.5q-58 49 -121 49q-29 0 -59.5 -11t-52 -25.5t-41 -32t-27 -26t-9.5 -11.5l-26 -32l-24 33q-2 3 -9.5 11t-27 25.5t-40.5 32t-51.5 25.5t-60.5 11q-63 0 -121 -50v0zM175 684z" />
    <glyph glyph-name="uniE608" unicode="&#xe608;" 
d="M958 576q-1 27 -9 52.5t-17 42.5t-20.5 32t-17.5 21l-8 8q-76 65 -162 65q-112 0 -214 -103q-101 103 -214 103q-86 0 -162 -66l-8 -8q-5 -5 -16.5 -20t-21 -32t-17 -42.5t-9.5 -52.5q-5 -111 96 -220l352 -376l352 376q102 109 96 220z" />
    <glyph glyph-name="uniE609" unicode="&#xe609;" horiz-adv-x="1025" 
d="M64 480h896v-192h-896v192zM416 832h192v-896h-192v896zM416 832z" />
    <glyph glyph-name="uniE60A" unicode="&#xe60a;" horiz-adv-x="1025" 
d="M828 701q-64 64 -148 97.5t-168.5 33.5t-168 -33.5t-148 -98t-98 -148t-33.5 -168t33.5 -168.5t98 -148t148 -98t168 -34t168.5 34t148 98q86 86 116.5 201t0 230.5t-116.5 201.5zM538 174h-64v184h-183v64h183v184h64v-184h184v-64h-184v-184zM538 174z" />
    <glyph glyph-name="uniE60B" unicode="&#xe60b;" horiz-adv-x="1025" 
d="M828 701q-64 64 -147.5 97.5t-168.5 33.5t-168.5 -33.5t-148 -98t-98 -148t-33.5 -168.5t33.5 -168.5t98 -148t148 -98t168.5 -33.5t168.5 33.5t148 98t98 148t33.5 168.5t-33.5 168.5t-98.5 148.5zM722 421v-64h-432v64h432zM722 421z" />
    <glyph glyph-name="uniE60C" unicode="&#xe60c;" horiz-adv-x="1025" 
d="M510 718q-104 0 -178 -72.5t-74 -175t74 -174.5t178.5 -72t178 72t73.5 174.5t-73.5 175t-178.5 72.5v0zM219 376v228h-9q39 85 120 137.5t180 52.5t180.5 -52.5t120.5 -137.5h-10v-228q49 0 83 33.5t34 80.5q0 31 -16.5 58t-43.5 41q-38 108 -133 175.5t-214.5 67.5
t-215 -67.5t-133.5 -175.5q-27 -14 -43 -40.5t-16 -58.5q0 -47 34 -80.5t82 -33.5v0zM762 245q-106 -97 -251.5 -97t-251.5 97q-91 -46 -143 -125t-52 -184h896q0 105 -53 184t-145 125v0zM762 245z" />
    <glyph glyph-name="uniE60D" unicode="&#xe60d;" 
d="M941 603q-57 103 -154 163q-11 7 -19 7q-14 0 -23.5 -10t-9.5 -24q0 -21 18 -31q84 -52 133 -142t49 -193t-49 -192.5t-132 -141.5q-19 -12 -19 -32q0 -14 9.5 -24t22.5 -10q8 0 19 7q97 60 154 163q59 106 59 230t-58 230zM823 373q0 73 -35 136q-34 60 -91 96
q-11 6 -18 6q-14 0 -23.5 -10.5t-9.5 -24.5q0 -20 16 -30q44 -26 69.5 -72.5t25.5 -100.5q0 -55 -26 -102t-72 -73q-15 -10 -15 -29q0 -14 9.5 -24.5t22.5 -10.5v0q8 0 17 5q60 36 95 98.5t35 135.5zM553 850q-8 4 -17 4q-14 0 -24 -9h-1q-54 -47 -111 -91
q-107 -83 -137 -95h-127h-2h-65q-14 0 -23.5 -10t-9.5 -24v-504q0 -14 9.5 -24t23.5 -10h218q29 -12 123 -94q47 -41 98 -89l2 -1q11 -11 26 -11q8 0 16 4q24 11 24 37v13v32v40v41v32v14q0 4 -1 708q0 25 -22 37zM511 110l-1 -109q-25 22 -47 42q-82 70 -117.5 91.5
t-55.5 21.5h-1v0h-1h-164q-14 0 -18.5 4.5t-4.5 20.5v387q0 12 3 17t13 5h148q19 0 56.5 21t126.5 91q31 24 62 49q1 -630 1 -641z" />
    <glyph glyph-name="uniE60E" unicode="&#xe60e;" 
d="M890 -23h-762q-12 0 -18.5 11t-0.5 22l85 146v320q0 112 71.5 199t180.5 109v9q0 27 19 46.5t46.5 19.5t46.5 -19.5t19 -46.5v-10q109 -23 178 -109t69 -198v-320l85 -146q6 -11 0 -22t-19 -11zM506.5 -91q-27.5 0 -46.5 19.5t-19 46.5q0 9 6.5 15.5t15.5 6.5t15 -6.5
t6 -15.5t6.5 -15.5t16 -6.5t16 6.5t6.5 15.5t6 15.5t15.5 6.5t15.5 -6.5t6 -15.5q0 -27 -19 -46.5t-46.5 -19.5z" />
    <glyph glyph-name="uniE60F" unicode="&#xe60f;" 
d="M890 -23h-762q-12 0 -18.5 11t-0.5 22l85 146v320q0 112 71.5 199t180.5 109v9q0 27 19 46.5t46.5 19.5t46.5 -19.5t19 -46.5v-10q109 -23 178 -109t69 -198v-320l85 -146q6 -11 0 -22t-19 -11zM166 20h686l-71 123q-6 10 -1 20v313q0 101 -64.5 176.5t-163.5 91.5
q-8 1 -13 7t-5 14v28q0 9 -6.5 15.5t-16 6.5t-16 -6.5t-6.5 -15.5v-27q0 -8 -5 -14t-13 -8q-100 -14 -166.5 -90.5t-66.5 -177.5v-315q4 -10 -1 -18zM506.5 -91q-27.5 0 -46.5 19.5t-19 46.5q0 9 6.5 15.5t15.5 6.5t15 -6.5t6 -15.5t6.5 -15.5t16 -6.5t16 6.5t6.5 15.5
t6 15.5t15.5 6.5t15.5 -6.5t6 -15.5q0 -27 -19 -46.5t-46.5 -19.5z" />
    <glyph glyph-name="uniE610" unicode="&#xe610;" 
d="M190 299q-48 0 -82 34t-34 82.5t34 82.5t82 34t82 -34t34 -82.5t-34 -82.5t-82 -34zM190 485q-29 0 -49.5 -20.5t-20.5 -49t20.5 -49t49.5 -20.5t49.5 20.5t20.5 49t-20.5 49t-49.5 20.5zM517 299q-48 0 -82 34t-34 82.5t34 82.5t82 34t82 -34t34 -82.5t-34 -82.5
t-82 -34zM517 485q-29 0 -49.5 -20.5t-20.5 -49t20.5 -49t49.5 -20.5t49.5 20.5t20.5 49t-20.5 49t-49.5 20.5zM834 299q-48 0 -82 34t-34 82.5t34 82.5t82 34t82 -34t34 -82.5t-34 -82.5t-82 -34zM834 485q-29 0 -49.5 -20.5t-20.5 -49t20.5 -49t49.5 -20.5t49.5 20.5
t20.5 49t-20.5 49t-49.5 20.5z" />
    <glyph glyph-name="uniE611" unicode="&#xe611;" 
d="M195 428zM102 427.5q0 38.5 27 66t66 27.5t66 -27.5t27 -66t-27 -65.5t-66 -27t-66 27t-27 65.5zM195 311q-48 0 -82 34.5t-34 82.5t34 82t82 34t82 -34t34 -82t-34 -82.5t-82 -34.5zM195 498q-29 0 -49.5 -20.5t-20.5 -49.5t20.5 -49.5t49.5 -20.5t49.5 20.5t20.5 49.5
t-20.5 49.5t-49.5 20.5zM522 428zM429 427.5q0 38.5 27.5 66t66 27.5t65.5 -27.5t27 -66t-27 -65.5t-65.5 -27t-66 27t-27.5 65.5zM522 311q-48 0 -82 34.5t-34 82.5t34 82t82 34t82.5 -34t34.5 -82t-34.5 -82.5t-82.5 -34.5zM522 498q-29 0 -49.5 -20.5t-20.5 -49.5
t20.5 -49.5t49.5 -20.5t49.5 20.5t20.5 49.5t-20.5 49.5t-49.5 20.5zM839 428zM746 427.5q0 38.5 27.5 66t66 27.5t65.5 -27.5t27 -66t-27 -65.5t-65.5 -27t-66 27t-27.5 65.5zM839 311q-48 0 -82 34.5t-34 82.5t34 82t82 34t82.5 -34t34.5 -82t-34.5 -82.5t-82.5 -34.5z
M839 498q-29 0 -49.5 -20.5t-20.5 -49.5t20.5 -49.5t49.5 -20.5t49.5 20.5t20.5 49.5t-20.5 49.5t-49.5 20.5z" />
    <glyph glyph-name="uniE613" unicode="&#xe613;" 
d="M453 84q-31 0 -50 21q-18 19 -18 50q0 57 58 249q-19 -8 -39 -17l-145 -64l106 117q48 53 90 77q44 25 79 25h1h1h3q30 -1 45 -17q14 -16 13 -41q0 -17 -30 -119q-30 -100 -41 -149q23 10 48 22l191 91l-154 -146q-64 -60 -96 -78q-36 -21 -62 -21zM565 574q-32 0 -53 23
q-21 22 -21 55q0 39 26 67q26 29 64 29q32 0 54 -22q21 -22 21 -54q0 -38 -27 -67q-27 -31 -64 -31zM565 574zM510 835q-91 0 -174 -35.5t-143 -95.5t-95.5 -143t-35.5 -174t35.5 -174t95.5 -143t143 -95.5t174 -35.5t174 35.5t143 95.5t95.5 143t35.5 174t-35.5 174
t-95.5 143t-143 95.5t-174 35.5zM509.5 -28q-112.5 0 -208 55.5t-151 151t-55.5 208t55.5 208t151 151t208 55.5t208 -55.5t151 -151t55.5 -208t-55.5 -208t-151 -151t-208 -55.5z" />
    <glyph glyph-name="uniE614" unicode="&#xe614;" 
d="M202 554q4 85 23 135q20 51 68 93t106.5 62t121.5 20q132 0 216.5 -74.5t84.5 -200.5q0 -63 -25.5 -109t-110.5 -124q-92 -87 -113 -128.5t-21 -137.5h-103q3 87 28.5 147t111 147t107 123t21.5 91q0 83 -54 133t-147 50q-203 0 -221 -227h-93zM574 -96h-124v124h124
v-124z" />
    <glyph glyph-name="uniE615" unicode="&#xe615;" 
d="M817 -96h-598q-45 0 -76.5 35t-31.5 85v300q0 50 31.5 85t76.5 35v90q0 90 40 166t109 120t150 44t150 -44t109 -120t40 -166v-2h-1q-1 -12 -8.5 -20t-18 -8t-18.5 8t-8 20h-1v2q0 112 -71.5 191t-172.5 79t-172.5 -79t-71.5 -191v-90h543q45 0 76.5 -35t31.5 -85v-300
q0 -50 -31.5 -85t-76.5 -35zM871 324q0 25 -16 42.5t-38 17.5h-598q-22 0 -38 -17.5t-16 -42.5v-300q0 -25 16 -42.5t38 -17.5h598q22 0 38 17.5t16 42.5v300zM545 150v-96q0 -12 -8 -21t-19 -9t-19 9t-8 21v96q-24 10 -39.5 32.5t-15.5 51.5q0 37 24 63.5t58 26.5
t57.5 -26.5t23.5 -63.5q0 -29 -15 -51.5t-39 -32.5zM518 264q-11 0 -19 -9t-8 -21t8 -21t19 -9t19 9t8 21t-8 21t-19 9z" />
    <glyph glyph-name="uniE616" unicode="&#xe616;" 
d="M887 472h-239q19 70 25.5 127.5t3 93.5t-15 63.5t-23 41t-26 22t-19.5 10t-9 1.5q-23 0 -36 -8.5t-15.5 -18t-3.5 -21t-2 -13.5q0 -46 -18.5 -94t-44.5 -83t-52 -63.5t-44 -42.5l-19 -15v-473q0 -21 18 -36.5t37 -21.5t34 -6h359q9 0 19 9.5t17 22.5t13 26t9 22l3 9
q39 134 61.5 232t24.5 128l3 31q0 18 -6.5 30t-15 17t-17.5 8t-15 3zM887 472zM252 472h-143q-13 0 -20.5 -7t-8.5 -14l-1 -8l29 -477q0 -14 7.5 -21.5t15.5 -8.5l8 -1h123q12 0 18.5 5t6.5 10l1 5v481q0 16 -9 25.5t-18 9.5zM252 472z" />
    <glyph glyph-name="uniE617" unicode="&#xe617;" 
d="M672 -88q-61 0 -104.5 6t-61.5 12t-47 20q-67 31 -154 43v-25h-137q-37 0 -61 35q-20 31 -20 74v336q0 42 20 73q24 36 61 36h137v-19q143 49 242 124q57 44 85 88q27 44 21 84q-4 23 13 42q14 17 34 17q25 0 51.5 -13.5t42.5 -42.5q27 -47 13 -120q-14 -69 -64 -160h125
q41 0 62 -33q16 -26 16 -64q0 -60 -31 -97q1 -1 1 -2q11 -20 11 -51q0 -45 -20 -87q-13 -26 -31 -40v-12q0 -41 -20 -84q-20 -40 -49 -52q-8 -39 -44 -63q-38 -25 -91 -25zM309 42q45 -5 80.5 -14t51 -15.5t39.5 -17.5q26 -12 42 -17.5t55 -10.5t95 -5q35 0 61 15t26 44v25
h25q8 0 18 14q14 19 21 49q6 26 3 35q3 -8 14 -8v50q10 0 22 25q15 31 15 64q0 18 -4 26q-2 3 -5 3v50q7 0 16 17q12 24 12 54q0 24 -8 37q-7 10 -20 10h-212l23 38q35 59 55 107t24 79.5t2 50t-9 30.5q-16 29 -48 31v-2q17 -109 -126 -218q-112 -86 -272 -137zM168 472
q-12 0 -21.5 -17.5t-9.5 -41.5v-336q0 -24 9.5 -41.5t21.5 -17.5h87v454h-87z" />
    <glyph glyph-name="uniE618" unicode="&#xe618;" 
d="M151 544l-51 -78l94 -59q1 0 3.5 -1.5t8 -6t10.5 -9.5t10 -13.5t7 -17t1 -20.5t-8 -24q-12 -26 -53 -71.5t-76 -78.5l-35 -33l123 -76q25 56 46.5 101.5t27.5 58t12 27t14 39.5q18 49 16.5 90t-27.5 67q-35 36 -52.5 51t-70.5 54zM151 544zM218 574q33 0 56.5 21
t23.5 51.5t-23.5 51.5t-56.5 21q-34 0 -57.5 -21t-23.5 -51.5t23.5 -51.5t57.5 -21zM218 574zM944 565q-1 4 -3 11.5t-13.5 26.5t-29.5 34t-55 29.5t-85 18.5t-124.5 -5t-168.5 -36l29 56l-113 32l-5 -16q-4 -11 -16 -40.5t-26 -56t-35.5 -57t-44.5 -49.5q5 -3 13 -8
t25.5 -15t28.5 -16l11 -6q34 34 60 68q25 11 53 23q-50 -90 -89 -131l48 -42q32 32 68 70h40v-70h-157v-56h157v-134h-6q-43 2 -55 21q-6 9 -6.5 23t1.5 33.5t2 24.5h-108l-4 -2q-1 -4 -2 -10.5t-2 -25t0.5 -35.5t8.5 -37t19 -34.5t35.5 -24t54.5 -9.5q169 -4 268 72l16 -60
l89 38l-60 149l-73 -23l13 -51q-25 -20 -62 -32v117h153v56h-153v70h154v55h-274q34 42 39 61l-48 13q320 115 318 -60v-319q1 -2 1 -6t-1 -15.5t-4.5 -21.5t-11.5 -22t-19.5 -20t-31.5 -13t-45 -4l-68 15l-15 -65q6 -1 16.5 -3.5t41 -7t59 -4.5t63.5 7t62 23t47.5 48.5
t24.5 78.5q4 36 6.5 71.5t3 65.5t0 58.5t-1.5 51t-3 42.5t-3.5 34.5t-3 25t-2.5 15.5zM944 565z" />
    <glyph glyph-name="uniE619" unicode="&#xe619;" 
d="M99 221q0 43 28.5 73.5t99.5 35.5q46 4 106.5 -17.5t98 -42.5t37.5 -23q-4 -6 -11.5 -15.5t-32 -34t-49.5 -43t-61 -34t-70 -15.5q-43 0 -73.5 11t-45.5 29.5t-21 37t-6 38.5zM377 760v-115h-209v-51l209 1v-77h-168v-40h345q-3 -33 -17 -74l-26 -76q-19 7 -48 18
t-95.5 29t-104.5 18q-34 0 -66 -8.5t-61.5 -25.5t-49 -47.5t-22.5 -71.5q-8 -81 28 -130t102 -67q106 -29 225 37q29 16 62 46.5t51 51.5t18 22l343 -189q22 37 37 71q7 16 14 34.5t11 29.5l4 10l-359 137q22 38 45 111q10 33 17 61.5t8 40.5l2 12l-185 2v72l224 2v51h-224
v115h-110zM377 760z" />
    <glyph glyph-name="uniE61A" unicode="&#xe61a;" 
d="M959 640q0 80 -56 136t-135.5 56t-135.5 -56t-56 -135.5t56 -136t136 -56.5q13 0 22.5 9.5t9.5 22.5t-9.5 22.5t-22.5 9.5q-53 0 -90.5 37.5t-37.5 90.5t37.5 90.5t90.5 37.5t90 -37.5t37 -90.5v0q0 -13 9.5 -22.5t23 -9.5t22.5 9.5t9 22.5v0zM320 320q53 0 90.5 37.5
t37.5 90.5t-37.5 90.5t-90.5 37.5t-90.5 -37.5t-37.5 -90.5q0 -40 23 -73q-87 -150 -87 -402v-5q0 -13 9.5 -22.5t22.5 -9.5t22.5 9.5t9.5 22.5v2q0 88 13 160.5t26 107t35 80.5q3 5 6 11q23 -9 48 -9zM320 704q-106 0 -181 -75t-75 -181q0 -32 8 -64l1 -2q3 -11 12 -20.5
t21 -9.5q14 0 23 9.5t9 22.5v2q0 7 -4 14q-6 23 -6 48q0 80 56 136t135.5 56t136 -56t56.5 -135.5t-56.5 -136t-135.5 -56.5q-13 0 -22.5 -9t-9.5 -22.5t9.5 -23t22.5 -9.5q106 0 181 75t75 181t-75 181t-181 75zM939 510q-76 39 -116 98q9 15 9 32q0 27 -19 45.5
t-45.5 18.5t-45 -18.5t-18.5 -45.5q0 -26 18.5 -45t44.5 -19q22 -34 57.5 -64.5t54.5 -41.5t34 -18q0 -1 1 -1h1q6 -3 12 -3q14 0 23 9.5t9 22.5q0 22 -20 30z" />
    <glyph glyph-name="uniE61B" unicode="&#xe61b;" 
d="M208 558q31 0 53 20t22 47.5t-22 47.5t-53 20t-53 -20t-22 -47.5t22 -47.5t53 -20zM146 531l-47 -72l87 -54q1 -1 3 -2t7.5 -5t10 -9t9.5 -12.5t7 -15.5t0.5 -19t-6.5 -22q-12 -24 -50.5 -65.5t-70.5 -72.5l-32 -30l113 -71q25 53 44.5 94t25.5 53t11 25.5t13 36.5
q16 45 15 82.5t-25 61.5q-33 33 -49.5 47t-65.5 50zM882 550q-1 4 -2.5 11t-12.5 24.5t-27.5 31.5t-51 27t-79 17t-115 -5t-156.5 -33l27 52l-105 29q-2 -6 -5.5 -15.5t-14.5 -36.5t-24 -51.5t-33 -52.5t-41 -46q5 -3 12.5 -7t23.5 -13t26.5 -15t9.5 -6q29 29 56 63
q22 10 49 21q-45 -81 -82 -121l44 -38q30 29 63 64h37v-65h-146v-51h146v-123h-5q-41 2 -51 19q-6 8 -6.5 20.5t1.5 31t2 23.5h-101l-3 -2q-1 -4 -2 -10t-2 -23t0.5 -32.5t8 -34t18 -32t33 -22.5t50.5 -8q157 -4 248 66l15 -55l83 34l-56 138l-67 -21l12 -47
q-24 -18 -58 -30v108h142v51h-142v65h143v51h-254q31 38 36 56l-44 12q296 106 295 -55v-294v-6q0 -4 -1 -14t-4 -19.5t-10.5 -20.5t-18 -18.5t-29 -12.5t-42.5 -3l-62 13l-15 -59q6 -2 15.5 -4t38 -6t55 -4t59 6.5t57.5 21t44 44.5t23 72q4 34 6 67t2.5 60.5t0 53.5
t-1.5 47t-2.5 39t-3.5 31.5t-3 23t-2 14.5t-1 4z" />
    <glyph glyph-name="uniE61C" unicode="&#xe61c;" 
d="M449 607v160q-136 -24 -228 -130t-92 -245q0 -112 47 -194q130 70 201.5 173t71.5 236zM576 607v160q135 -24 227.5 -130t92.5 -245q0 -112 -48 -194q-130 70 -201 173t-71 236zM512 401q-72 -180 -255 -290q107 -101 252 -101q141 0 247 96q-160 96 -244 295z" />
    <glyph glyph-name="uniE61D" unicode="&#xe61d;" 
d="M959 485q0 -12 -14 -27l-195 -200l46 -283q1 -3 1 -11q0 -12 -6 -20t-16 -8q-11 0 -22 7l-241 133l-242 -133q-11 -7 -21 -7q-11 0 -17 8t-6 20q0 4 1 11l47 283l-196 200q-14 15 -14 27q0 21 31 26l269 41l121 257q11 24 27 24t26 -24l121 -257l270 -41q30 -5 30 -26z
M959 485zM704 192l-230 51l221 206h-375l254 -42l-254 -215h384z" />
    <glyph glyph-name="uniE61E" unicode="&#xe61e;" 
d="M170 668q0 17 12.5 29.5t29.5 12.5h213v42q0 18 12.5 30t30.5 12h85q18 0 30.5 -12t12.5 -30v-42h213q17 0 29.5 -12.5t12.5 -30.5v-42h-681v43zM809 541v-85v-437q0 -18 -12.5 -30.5t-30.5 -12.5h-511q-18 0 -30.5 12.5t-12.5 30.5v437v85v42h597v-42zM383 456
q0 18 -12.5 30t-30.5 12t-30 -12t-12 -30v-353q0 -17 12 -29.5t30 -12.5t30.5 12.5t12.5 29.5v353v0zM553 456q0 18 -12.5 30t-30 12t-30 -12t-12.5 -30v-353q0 -17 12.5 -29.5t30 -12.5t30 12.5t12.5 29.5v353zM724 456q0 18 -12.5 30t-30.5 12t-30.5 -12t-12.5 -30v-353
q0 -17 12.5 -29.5t30.5 -12.5t30.5 12.5t12.5 29.5v353z" />
    <glyph glyph-name="uniE61F" unicode="&#xe61f;" 
d="M695 786q-109 0 -184 -102q-76 102 -184 102q-104 0 -178 -80t-74 -193q0 -42 13.5 -83.5t25.5 -63t34 -56.5q15 -24 35.5 -49.5t43 -49t46.5 -46.5t48 -44t46 -39t42 -33.5t34 -26t24.5 -18t10.5 -8.5q14 -11 32 -11q17 0 33 11q0 1 10.5 8.5t24 18t34 26t42 33.5t46 39
t48.5 44t46.5 46.5t43 49t35.5 49.5q22 35 34.5 56.5t25.5 63t13 83.5q0 112 -74 192.5t-177 80.5v0v0z" />
    <glyph glyph-name="uniE620" unicode="&#xe620;" 
d="M905 689q-18 17 -39.5 30.5t-41.5 21t-40.5 12.5t-37 6.5t-29.5 2t-21 0.5l-7 -1q-12 0 -20.5 -8.5t-8.5 -20.5v-14q0 -12 8.5 -20t20.5 -8q5 1 14 1.5t33 -1.5t45 -7.5t45.5 -20t38.5 -35.5q24 -34 31.5 -77.5t2.5 -69.5l-4 -26q-2 -12 5.5 -20.5t19.5 -8.5h12
q12 0 21.5 8.5t10.5 20.5q1 0 3 16t1.5 43t-4.5 57t-19 63t-40 56zM803 459h18q8 0 14.5 5.5t7.5 13.5q1 4 2 9.5t2 21.5t-0.5 30.5t-9.5 32.5t-21 30q-21 19 -48.5 26t-44.5 4l-17 -3q-8 -1 -13.5 -7.5t-5.5 -14.5v-7q0 -8 5.5 -13.5t13.5 -4.5q3 -1 14.5 0.5t32 -4.5
t31.5 -20t12.5 -34t-2.5 -33l-4 -13q-3 -8 1 -13.5t12 -5.5zM395 381q-64 -13 -102.5 -60.5t-27.5 -102t64 -84t117.5 -17t102.5 60t27.5 102t-63.5 84t-118 17.5zM388 189q-20 -9 -39 -5t-26 19.5t2 32.5t29 26.5t39 5t26 -19.5t-2 -32t-29 -27zM449 251q-11 0 -19 7.5
t-8 19t8 19t19 7.5t18.5 -7.5t7.5 -19t-7.5 -19t-18.5 -7.5zM716 411q0 1 10.5 16.5t18.5 32.5t2.5 39t-31.5 38q-60 35 -197 -12l-17 -4q21 40 21 66.5t-17 42.5t-36 23t-38 7q-39 0 -103.5 -39.5t-125.5 -96t-106 -125.5t-45 -122q0 -72 55 -134t149.5 -98t205.5 -36
t205 36t148.5 97.5t54.5 134.5q0 30 -11.5 53t-28.5 36t-37 22t-37 12.5t-28.5 6t-11.5 4.5zM473 91q-108 -15 -192 25t-94 111.5t59.5 133t178 76.5t192.5 -25t94 -111.5t-59.5 -133t-178.5 -76.5z" />
    <glyph glyph-name="uniE621" unicode="&#xe621;" 
d="M662 808q-60 24 -151 24q-41 0 -79 -7t-55 -13l-18 -7l303 -302v305zM826.5 701.5q-28.5 28.5 -60.5 50t-49 28.5l-17 8l-3 -426l219 217q-2 6 -8 17.5t-29.5 44t-52 61zM929 535l-306 -299h310q24 60 24 149q0 40 -7 77.5t-14 55.5zM702 -19q7 3 18.5 8.5t44.5 28.5
t61.5 51.5t50.5 59.5t29 49l8 17l-431 2zM359 -37q60 -24 152 -24q40 0 78 6.5t56 13.5l17 7l-303 302v-305zM195 70q13 -13 27 -25t26 -20.5t23.5 -15.5t20.5 -12t15.5 -8t10.5 -5l4 -1l2 426l-219 -217q2 -6 8.5 -17.5t29.5 -44t52 -60.5zM88 535q-24 -60 -24 -150
q0 -40 7 -77t14 -55l7 -17l306 299h-310zM319 790q-7 -3 -18.5 -9t-44.5 -28.5t-61.5 -51t-50.5 -60t-29 -48.5l-8 -17l431 -2z" />
    <glyph glyph-name="uniE622" unicode="&#xe622;" 
d="M925 481h-319v319q0 14 -9 23t-23 9h-127q-14 0 -23 -9t-9 -23v-319h-319q-13 0 -22.5 -9t-9.5 -23v-127q0 -13 9 -22.5t23 -9.5h319v-319q0 -13 9 -22.5t23 -9.5h127q14 0 23 9.5t9 22.5v319h319q14 0 23 9t9 23v127q0 14 -9 23t-23 9z" />
    <glyph glyph-name="uniE623" unicode="&#xe623;" 
d="M153 733h715q37 0 63 -25t26 -61l-446 -242l-447 242q1 35 27 60.5t62 25.5zM64 554v-429q0 -36 26 -61.5t63 -25.5h715q37 0 63 25.5t26 61.5v429l-436 -231q-10 -6 -21 0zM64 554z" />
    <glyph glyph-name="uniE624" unicode="&#xe624;" 
d="M612 205l51 35h41v281h-116v-281h12zM512 821q-112 0 -207.5 -58.5t-151 -159t-55.5 -219.5t55.5 -219.5t151 -159t207.5 -58.5t207.5 58.5t151 159t55.5 219.5t-55.5 219.5t-151 159t-207.5 58.5zM431 356v-1q-2 -27 -12 -63l22 17l63 -75q4 -16 3 -29t-3 -21l-3 -9
l-85 104q-13 -42 -30 -78q-14 -29 -33.5 -40t-46.5 -14q-23 0 -21 5q17 15 30 27.5t22.5 27t13 19.5t12 22t9.5 18q13 27 22 90h-104q5 29 18 39h90q1 16 -1 122h-45q-1 -6 -2.5 -11.5t-4 -10t-5 -8.5t-5 -7t-5.5 -5.5t-5 -4.5t-5 -3.5t-4.5 -2.5t-3.5 -2l-2 -1
q-16 -8 -19 -2q-1 1 0 2q0 1 4.5 10.5t10 21t12 31t11.5 40.5q7 27 21 41t25 15l12 1q-6 -9 -11 -26t-7 -29l-2 -13h142q4 0 6.5 -9t2.5 -18l1 -9h-82q-2 -76 -4 -122h85q11 -14 11 -39h-98v0zM740 201h-78l-62 -43l-15 43h-35v360h190v-360z" />
    <glyph glyph-name="uniE625" unicode="&#xe625;" horiz-adv-x="1084" 
d="M821 352q0 36 12 70t24.5 53.5t34 39.5t26 23t14.5 9q-21 31 -49 52.5t-56 31t-46.5 13.5t-35.5 5q-35 3 -75 -8.5t-73 -25t-48 -13.5q-17 0 -75 22.5t-94 21.5q-65 -1 -122 -35.5t-90 -92.5q-33 -57 -41 -129t6 -141.5t39.5 -133t60.5 -112.5q20 -30 34.5 -48.5t36 -40
t44 -32t46.5 -9.5q30 1 78 21.5t90 20.5q40 0 87.5 -20.5t81.5 -20.5q25 1 47 11t42.5 30.5t33.5 37.5t34 47q43 64 71 146h-1q-8 3 -18 8t-33 23t-40 39t-31 58t-15 79v0zM692 733q29 34 43.5 77t10.5 86q-39 -2 -81.5 -23.5t-69.5 -53.5q-28 -32 -44 -75t-11 -84
q42 -3 83 17.5t69 55.5v0z" />
    <glyph glyph-name="uniE626" unicode="&#xe626;" horiz-adv-x="1053" 
d="M972 170h-9q-28 0 -47 18.5t-19 45.5v257q0 27 19 45.5t47 18.5h9q27 0 46.5 -18.5t19.5 -45.5v-257q0 -26 -19.5 -45t-46.5 -19zM788 75h-72v-139q0 -27 -19 -45.5t-47 -18.5h-9q-27 0 -46.5 18.5t-19.5 45.5v139h-111v-139q0 -27 -19.5 -45.5t-46.5 -18.5h-9
q-27 0 -46.5 18.5t-19.5 45.5v139h-63q-27 0 -46.5 18.5t-19.5 44.5v391q0 10 1 20h659v-20v-391q0 -26 -19 -44.5t-47 -18.5zM361 796l-55 92q-2 4 1 6l3 1q4 3 6 -1l56 -93q63 29 134 29h36q68 0 130 -27l54 91q2 3 6 1l3 -1q4 -2 2 -6l-54 -90q66 -32 110.5 -90
t56.5 -130h-652q12 70 55.5 127.5t107.5 90.5zM673 677q14 0 24 7.5t10 18t-10 18.5t-24 8t-24.5 -8t-10.5 -18.5t10 -18t25 -7.5zM367 674q14 0 24 7.5t10 18.5t-10 18.5t-24.5 7.5t-24.5 -7.5t-10 -18.5t10 -18.5t25 -7.5zM89 170h-9q-28 0 -47 19t-19 45v257
q0 27 19 45.5t47 18.5h9q27 0 46.5 -18.5t19.5 -45.5v-257q0 -27 -19.5 -45.5t-46.5 -18.5z" />
    <glyph glyph-name="uniE628" unicode="&#xe628;" 
d="M120 -40q-17 0 -28.5 11.5t-11.5 28.5t12 28l355 356l-355 356q-12 11 -12 28t11.5 28.5t28.5 11.5t28 -12l384 -384q12 -11 12 -28t-12 -28l-384 -384q-11 -12 -28 -12zM520 -40q-17 0 -28.5 11.5t-11.5 28.5t12 28l355 356l-355 356q-12 11 -12 28t11.5 28.5t28.5 11.5
t28 -12l384 -384q12 -11 12 -28t-12 -28l-384 -384q-11 -12 -28 -12z" />
    <glyph glyph-name="uniE629" unicode="&#xe629;" 
d="M603 896l10 -63l-192 -31l-10 63zM800 453q-1 117 -85.5 200.5t-202.5 83.5t-202.5 -83.5t-85.5 -201.5l-70 -420h716zM230 96l57 348l1 5q0 93 65.5 158.5t158.5 65.5t158.5 -65.5t65.5 -157.5l58 -354h-564zM352 449l-32 -253l64 -8l32 243v18q0 40 28 68t68 28v64
q-66 0 -113 -47t-47 -113zM512 -64q-13 0 -22.5 9.5t-9.5 22.5h-64q0 -40 28 -68t68 -28t68 28t28 68h-64q0 -13 -9.5 -22.5t-22.5 -9.5z" />
    <glyph glyph-name="uniE62A" unicode="&#xe62a;" 
d="M140 -35l372 157l372 -157v838h-744v-838zM80 803q0 25 17.5 42.5t42.5 17.5h744q25 0 42.5 -17.5t17.5 -42.5v-838q0 -32 -26.5 -50t-56.5 -5l-372 156h46l-372 -156q-30 -13 -56.5 5t-26.5 50v838zM512 289l117 -53q18 -8 28.5 0t8.5 27l-16 123l88 92q13 13 9.5 25.5
t-22.5 16.5l-128 23l-62 110q-9 16 -23 16t-23 -17l-62 -108l-128 -24q-19 -4 -22.5 -16t9.5 -26l88 -92l-16 -123q-2 -19 8.5 -27t28.5 0zM537 235l-117 -53q-50 -23 -89 6t-32 83l16 123l16 -49l-88 91q-25 26 -27 57t17.5 55t54.5 31l128 23l-41 -29l62 109
q26 47 74.5 47t75.5 -47l62 -109l-41 29l128 -24q35 -6 54.5 -30t17.5 -55t-27 -57l-88 -91l16 49l16 -123q7 -55 -32 -83.5t-89 -5.5l-117 53h50z" />
    <glyph glyph-name="uniE62B" unicode="&#xe62b;" 
d="M870 706q-16 15 -39 15h-4q-6 -1 -25 -1q-64 0 -116 12q-25 6 -55 25t-58 41t-30 24q-15 9 -32.5 9t-31.5 -9q-1 0 -5.5 -4.5t-12 -11t-17.5 -15t-22.5 -17.5t-25.5 -17t-28.5 -15t-28.5 -10q-52 -12 -117 -12q-18 0 -25 1h-4q-23 0 -39 -15q-19 -17 -19 -41v-140
q0 -106 20 -195.5t49.5 -147.5t70.5 -104.5t75 -71t72 -42t53 -21.5t25 -5q6 -1 11 -1t10 1q10 1 25.5 5t53.5 21.5t72.5 42t75.5 71t70.5 104.5t50 147.5t20.5 195.5v140q0 24 -19 41zM741 505l-243 -235q-3 -4 -6 -7q-10 -10 -26 -10q-15 0 -25 10q-4 3 -6 7l-130 126
q-10 10 -10 24t10 24t25 10t25 -10l111 -107l225 217q10 10 24.5 10t25 -10t10.5 -24.5t-10 -24.5z" />
    <glyph glyph-name="uniE62C" unicode="&#xe62c;" 
d="M695 785q-26 0 -49 -5l-165 -242l145 -128l-122 -149l24 -142l-79 170l79 113l-173 123l122 198q-65 62 -150 62q-104 0 -178 -79.5t-74 -192.5q0 -42 13.5 -83.5t25.5 -63t34 -56.5q15 -24 35.5 -49.5t43 -49t46.5 -46.5t48 -44t46 -39t42 -34t34 -26t25 -18l10 -8
q14 -11 32 -11t33 11q0 1 10.5 8.5t24.5 18t34 26t41.5 33.5t46 39t48.5 44t46.5 46.5t43 49t35.5 49.5q22 35 34.5 56.5t25.5 63t13 83.5q0 112 -74 192t-177 80z" />
    <glyph glyph-name="uniE62D" unicode="&#xe62d;" 
d="M103 829h287l205 -364h-246zM513 426q-102 0 -174 -71t-72 -171.5t72 -172t174 -71.5t174 71.5t72 172t-72 171.5t-174 71zM592 52l-81 59l-82 -57l29 98l-77 64l99 1l34 97l32 -98l99 -4l-80 -61zM595 829h327l-286 -364l-123 234z" />
    <glyph glyph-name="uniE62E" unicode="&#xe62e;" 
d="M297 122h117v-190h-117v190zM941 896h-918q-9 0 -15.5 -6.5t-6.5 -15.5v-795l147 -145h67v33v247h443v-280h-1h284q9 0 15.5 6.5t6.5 15.5v918q0 9 -6.5 15.5t-15.5 6.5zM809 412h-655v431h655v-431zM297 -66h117v-6h-117v6z" />
    <glyph glyph-name="uniE62F" unicode="&#xe62f;" horiz-adv-x="1076" 
d="M599 434q0 2 -3 2q0 2 -4 7q-2 2 -3 4l-2 4l-3 2q-3 2 -5 5q-1 0 -2 1t-2 1l-3 3q-1 0 -3.5 1t-3.5 1h-2h-3h-5q-17 0 -24 -2l-39 -8q-19 -5 -29 -22t-5 -36q8 -24 27 -31l-51 -187q-6 -18 8 -41l2 -2l2 -3q22 -21 49 -14l46 12q20 5 29.5 22.5t4.5 35.5q-9 25 -29 32
l48 184q9 12 5 29zM662 874q-134 36 -264.5 1t-226.5 -130.5t-131.5 -228.5t-0.5 -264t130.5 -226.5t228.5 -131.5q107 -27 207.5 -11.5t187.5 69.5q24 12 24 41q0 20 -14.5 34t-34.5 14q-16 0 -29 -9q-70 -43 -151 -54.5t-166 10.5q-108 29 -185 106.5t-105.5 183
t0.5 214.5q28 108 105.5 185t183.5 105.5t214 -0.5q108 -28 185.5 -105.5t105.5 -183.5t0 -214q-12 -47 -46 -107q-8 -11 -8 -26q0 -20 14.5 -34.5t34.5 -14.5q29 0 41 24q38 66 56 131q21 83 18.5 162t-32.5 153t-77.5 135t-116 106t-148.5 66zM625 579q6 24 -5.5 44.5
t-35.5 25.5q-24 6 -44 -6t-26 -35q-5 -24 6.5 -44.5t35 -26t44 7t25.5 34.5z" />
    <glyph glyph-name="uniE631" unicode="&#xe631;" 
d="M111 70h801v-88h-801v88zM264 115l566 566l-105 104l-565 -565v0l-1 -1v-1l-47 -148l151 45v0h1z" />
    <glyph glyph-name="uniE632" unicode="&#xe632;" 
d="M949 500l-434 291l-1 3l-1 -1l-1 1l-2 -3l-435 -290v-172h88l2 -355h327h41h330v355h86v171zM864 414h-87v-354h-244h-41h-241l-2 354h-89v41l353 235l351 -235v-41zM620 301q-40 42 -107 42h-1h-1q-67 0 -107 -42q-18 -19 -28 -45.5t-11 -40.5t-1 -25v-173h86v174v2
q-1 31 17 49q14 15 45 15t45 -15q18 -18 17 -49v-1v-175h86v173q0 11 -1 25t-11 40.5t-28 45.5z" />
    <glyph glyph-name="uniE633" unicode="&#xe633;" 
d="M465 3l-348 348l414 414h376l-30 -349zM239 351l226 -226l329 329l20 225h-247zM670 480l-73 73l73 73l73 -74z" />
    <glyph glyph-name="uniE634" unicode="&#xe634;" 
d="M819 265l97 194l-50 25q-17 62 -52 115q-36 53 -88 92q-69 52 -153 70q-87 19 -174 -3q-76 -20 -138 -67q-60 -45 -98.5 -109.5t-49.5 -139.5q-12 -76 7 -152t66 -138q45 -60 110 -99t139 -50q29 -4 58 -4q48 0 95 11q99 25 173 96l-60 62q-57 -55 -134 -74
q-79 -20 -155.5 2t-132.5 79t-76 135.5t2 155.5t79.5 132.5t135.5 75.5q67 17 133.5 3.5t120.5 -54.5q74 -56 103 -143l-46 -22z" />
    <glyph glyph-name="uniE635" unicode="&#xe635;" 
d="M898 43l-149 150q79 100 79 230q0 99 -47 182.5t-127.5 132.5t-176 49t-176 -49t-127.5 -132.5t-47 -182.5t47 -182.5t127.5 -132.5t175.5 -49q116 0 209 72l150 -150zM477 145q-111 0 -189.5 81.5t-78.5 196.5t78.5 196.5t189.5 81.5t189.5 -81.5t78.5 -196.5
t-78.5 -196.5t-189.5 -81.5z" />
    <glyph glyph-name="uniE636" unicode="&#xe636;" 
d="M512.5 223q-66.5 0 -113.5 47t-47 113.5t47 113.5t113.5 47t113.5 -47t47 -113.5t-47 -113.5t-113.5 -47zM512.5 458q-30.5 0 -52.5 -22t-22 -53t22 -52.5t52.5 -21.5t52.5 21.5t22 52.5t-22 53t-52.5 22zM600 -26h-168l-43 43v-1q-2 28 -30 45q-15 9 -43 9q-26 0 -47 -6
l-49 17l-100 154l20 64q0 -1 -1 -1q5 2 10.5 6.5t13 20.5t7.5 37q-1 33 -20 53q-10 11 -20 15l-21 63l116 184l60 13q22 -14 44 -14q11 0 18 5q17 11 28 36t14 41l43 35h164l43 -43v1q0 -2 0.5 -5.5t3 -11.5t6.5 -15.5t12 -16t18 -15.5q17 -10 34 -10q19 0 33 9l-1 -1
l62 -13l109 -183l-21 -63v1q-11 -5 -21 -16q-19 -20 -19 -51q0 -33 17 -50q7 -7 12 -9l22 -65l-106 -154l-55 -14h1q-16 7 -35 7q-16 0 -29 -7q-17 -8 -27 -26.5t-13 -32.5zM466 60h103q2 6 5 11q25 51 68 74q32 16 69 16q18 0 36 -4l64 92v1q-42 42 -42 110t46 114l6 6
l-69 116q-19 -5 -39 -5q-41 0 -78 22q-51 31 -71 86q-2 4 -3 8h-97q-24 -67 -69 -97q-29 -20 -66 -20q-25 0 -51 9l-74 -116l5 -5q46 -45 47 -114q1 -68 -39 -113q-2 -1 -3 -3l62 -95q21 3 40 3q51 0 87 -21q45 -27 63 -75z" />
    <glyph glyph-name="uniE637" unicode="&#xe637;" 
d="M785 -26l-273 143l-272 -143l52 303l-221 215l305 44l136 276l136 -276l305 -44l-220 -215zM256 432l128 -125l-30 -176l158 83l158 -83l-30 176l128 125l-177 26l-79 160l-79 -160z" />
    <glyph glyph-name="uniE638" unicode="&#xe638;" 
d="M176 735h672v-88h-672v88zM563 33h-100v435l-143 -141l-64 64l256 256l256 -256l-64 -64l-143 138z" />
    <glyph glyph-name="uniE639" unicode="&#xe639;" 
d="M511.5 367q-92.5 0 -158 65.5t-65.5 157.5t65.5 157.5t158 65.5t157.5 -65.5t65 -157.5t-65 -157.5t-157.5 -65.5zM511.5 727q-56.5 0 -97 -40t-40.5 -97t40.5 -97t97 -40t96.5 40t40 97t-40 97t-96.5 40zM911 -2h-86q0 85 -42 157t-114 114t-157 42t-157.5 -42
t-114 -114t-41.5 -157h-86q0 81 31 155q30 72 85.5 127t126.5 85q74 32 155.5 32t155.5 -32q72 -30 127 -85.5t85 -126.5q32 -74 32 -155z" />
    <glyph glyph-name="uniE63A" unicode="&#xe63a;" 
d="M229 465l-1 5l-1 6l-1 3v4v5v5l1 5l2 5l2 6l2 7l4 7l5 6v5v5l1 6l2 6l2 8l1 3l2 3l2 4l3 2v5v5v7l1 9l1 10l3 12l3 12l3 7l3 8l2 7l4 7l3 8l4 8l5 8l5 8l3 5l2 4l6 8l7 9l7 9l7 9l8 8l9 9l10 9l7 6l7 6l9 6l8 5l9 4l9 4l10 5l10 3l10 4l11 3l11 3l11 2l11 2l12 1l11 2h12
h11h12h12l12 -1l12 -2l12 -1l12 -2l12 -3l11 -3l12 -3l11 -4l11 -5l11 -5l11 -5l10 -6l10 -6l9 -6l4 -3l4 -3l8 -7l6 -6l7 -7l7 -7l5 -8l6 -7l5 -8l4 -7l5 -8l4 -8l7 -15l3 -8l3 -7l2 -8l3 -8l1 -6l2 -8l4 -13l2 -12l2 -11l1 -10l2 -14l1 -2l1 -2l5 -8l2 -4l3 -6l3 -5l3 -7
l2 -6l2 -8l1 -7l1 -4l1 -5v-4l-1 -3v-5l-1 -5l-2 -9l-3 -5l-1 -5v-2l1 -1l2 -4l10 -16l9 -11l4 -8l5 -9l5 -9l5 -10l5 -11l7 -13l3 -8l3 -7l3 -8l2 -7l2 -8l2 -7l3 -14l2 -14l2 -13v-7v-5v-6l-1 -6l-2 -11l-2 -10l-3 -8l-1 -4l-2 -4l-1 -3l-3 -4l-2 -2l-2 -3l-2 -3l-3 -2
l-3 -1l-2 -2h-2h-2h-2h-2l-4 2l-2 2l-1 1l-2 2l-3 2l-3 4l-4 5l-3 6l-4 5l-3 5l-4 9l-5 10h-1h-1l-2 -1l-1 -3l-2 -3l-3 -10l-5 -13l-7 -16l-5 -8l-5 -8l-6 -10l-7 -9l-3 -4l-4 -5l-10 -9l1 -1l1 -1l5 -3l19 -9l9 -5l8 -5l8 -6l7 -6l4 -2l2 -3l3 -4l2 -4l1 -3l2 -4v-4l1 -4
l-1 -2v-3v-3l-2 -2v-2l-2 -3l-3 -5l-3 -3l-3 -3l-2 -2l-5 -4l-6 -4l-7 -3l-7 -3l-8 -3l-4 -1l-3 -2l-9 -2l-10 -2l-9 -2l-10 -1l-11 -1l-10 -1h-11h-11h-12l-12 1l-11 1l-12 1l-12 2l-13 1l-12 3l-12 3l-12 3l-12 4l-12 4l-6 2l-6 2l-3 2h-4h-4h-5l-12 1l-6 1l-7 1l-5 -5
l-6 -4l-9 -4l-10 -6l-6 -2l-6 -3l-14 -5l-7 -2l-8 -2l-11 -2l-7 -1l-7 -1h-8l-8 -1h-9h-8h-19l-20 1l-20 2l-10 1l-9 1l-9 2l-10 2l-8 2l-9 2l-8 4l-7 2l-7 4l-6 3l-6 5l-2 2l-3 2l-2 3l-1 2l-2 3l-1 2l-2 6l-1 2l-1 4v3l1 3v3l1 3v2v5v3l2 4l1 4l2 5l2 2l1 2l4 5l3 2l3 2
l2 2l4 1l4 2l4 2l4 1l5 2l5 1l6 1h6l6 1l2 1h1v1l-1 2l-4 1l-8 8l-6 5l-7 6l-7 6l-7 9l-8 9l-3 5l-4 6l-4 6l-3 7l-4 6l-3 7l-3 8l-3 8l-3 8l-2 9l-1 1h-1h-1h-1l-1 -1l-1 -1v-2l-1 -2l-1 -3l-4 -7l-2 -4l-3 -4l-4 -5l-4 -5l-4 -4l-4 -4l-5 -4l-5 -4l-5 -3l-5 -2l-6 -1
l-6 -1h-1h-1l-1 1l-1 2l-2 1l-2 6l-2 3l-1 4l-1 5l-1 4l-2 10l-1 6v6v14l1 14l1 8l2 7l1 9l2 7l3 9l2 9l4 9l3 8l4 9l5 9l5 9l6 9l6 9l6 9l6 7l7 7l7 8l3 4l4 4l6 5l6 5l10 9l8 5z" />
    <glyph glyph-name="uniE63B" unicode="&#xe63b;" 
d="M682 580q15 0 33 -2q-22 103 -120 171.5t-224 68.5q-92 0 -170.5 -38.5t-124 -105.5t-45.5 -146q0 -135 136 -230l-34 -103l119 60q86 -17 119 -17q15 0 32 1q-10 36 -10 72q0 111 84 190t205 79zM499 673q19 0 31 -12t12 -31t-12 -31t-31 -12q-20 0 -35.5 12.5t-15.5 31
t15.5 30.5t35.5 12zM261 587q-20 0 -36 12.5t-16 31t16 30.5t36 12q19 0 30.5 -12t11.5 -31t-11.5 -31t-30.5 -12zM993 315q0 66 -40 123.5t-106.5 90.5t-142.5 33q-121 0 -205.5 -72.5t-84.5 -175t84.5 -175t205.5 -72.5q34 0 102 17l94 -51l-26 85q119 90 119 197z
M610 357q-13 0 -23.5 10.5t-10.5 23.5t10.5 23.5t23.5 10.5q19 0 31 -10t12 -23.5t-12 -24t-31 -10.5zM797 357q-12 0 -22.5 10.5t-10.5 23.5t10.5 23.5t22.5 10.5q19 0 31 -10t12 -23.5t-12 -24t-31 -10.5z" />
    <glyph glyph-name="uniE63D" unicode="&#xe63d;" 
d="M440 260q-21 0 -37 15q-71 72 -71 173t71 173l192 192q72 71 173 71t172.5 -71.5t71.5 -172.5t-71 -173l-88 -87q-15 -15 -36.5 -15t-37 15t-15.5 36.5t15 36.5l88 88q41 41 41 99t-41 99t-99 41t-99 -41l-192 -192q-41 -41 -41 -99t41 -99q15 -15 15 -36.5t-15 -37
t-37 -15.5zM256 -116q-101 0 -172.5 71.5t-71.5 172.5t71 173l88 87q15 16 37 16t37 -15.5t15 -37t-15 -36.5l-88 -88q-41 -41 -41 -99t41 -99t99 -41t99 41l192 192q41 41 41 99t-41 99q-15 15 -15 36.5t15 37t36.5 15.5t37.5 -15q71 -72 71 -173t-71 -173l-192 -192
q-72 -71 -173 -71z" />
    <glyph glyph-name="uniE63E" unicode="&#xe63e;" 
d="M512 758q95 0 178.5 -36.5t145.5 -98.5t98.5 -146t36.5 -179t-36.5 -178.5t-98.5 -145.5t-145.5 -98.5t-178.5 -36.5t-179 36.5t-146 98.5t-98.5 145.5t-36.5 178.5t36.5 179t98.5 146t146 98.5t179 36.5zM567 361q0 25 -15.5 42t-39.5 17t-40 -17t-16 -42v-343
q0 -24 16 -39t40 -15t40 15.5t16 39.5zM512 488q30 0 51 21t21 51t-21 51t-51 21t-51.5 -21t-21.5 -51t21.5 -51t51.5 -21z" />
    <glyph glyph-name="uniE640" unicode="&#xe640;" 
d="M412 60q42 -14 83 -41v520h-1v1h-2v1h-1q0 1 -1 1v0l-1 1l-1 1q-7 7 -19 16.5t-45 26t-65.5 22t-77.5 -6.5t-85 -48v-520q101 63 216 26zM828 34v520q-40 36 -85 48.5t-77.5 6.5t-65.5 -22.5t-45 -26t-19 -16.5q-3 -3 -7 -5v-520q41 27 83 41q115 37 216 -26zM887 593
q-122 122 -275 73q-52 -17 -100 -53q-48 36 -100 53q-153 49 -275 -73q-10 -10 -10 -24v-606q0 -24 22 -32q6 -3 13 -3q14 0 24 10q41 41 87 55.5t80 9.5t68 -21.5t46.5 -26.5t20.5 -17l4 -4h1l1 -1v0l1 -1h1q1 0 1 -0.5t1 -0.5v0q1 0 1 -1h1h1q1 0 2 -1h1h1h1v-1h2h1h2h2h1
h2h2q0 1 1 1h2l1 1h1h1v0l1 1h1v1h1h1h1v1h1l1 1h1v1h1l1 1h1v1q1 0 1 1q4 4 11 9.5t26 18t38.5 21t48 14t56 2.5t60 -19t62.5 -46q10 -10 24 -10q7 0 13 3q22 8 22 32v606q0 14 -10 24zM196 554q40 36 85 48t77.5 6.5t65.5 -22t45 -26t19 -16.5l1 -1l1 -1v0q1 0 1 -1h1
v-0.5t1 -0.5h1v-1h1v-520q-41 27 -83 41q-115 37 -216 -26v520zM529 539q4 2 7 5q7 7 19 16.5t45 26t65.5 22.5t77.5 -6.5t85 -48.5v-520q-101 63 -216 26q-42 -14 -83 -41v520z" />
    <glyph glyph-name="uniE642" unicode="&#xe642;" 
d="M789 603q-57 0 -96.5 40t-39.5 96v156h-488q-34 0 -58 -24t-24 -59v-856q0 -35 24 -59t58 -24h694q34 0 58 24t24 59v647h-152zM805 57h-586v55h586v-55zM805 234h-586v55h586v-55zM805 411h-586v55h586v-55zM706 895v-156q0 -34 24 -58.5t59 -24.5h152z" />
    <glyph glyph-name="uniE643" unicode="&#xe643;" 
d="M261 28v635q0 2 0.5 5t3 11.5t7.5 15t14.5 12t23.5 5.5h390q2 0 5.5 0.5t11.5 -0.5t14.5 -5.5t12 -15.5t5.5 -28v-634l-244 170z" />
    <glyph glyph-name="uniE644" unicode="&#xe644;" horiz-adv-x="1025" 
d="M1024 382v-2v-1v-1v0q-3 -13 -11 -22q-13 -15 -34 -37q-103 -106 -218 -166q-85 -45 -162 -59q-95 -18 -187 2q-144 32 -290 152q-70 58 -111 108q-23 28 0 56q11 14 34 37q104 106 217 166q86 45 163 59q94 18 187 -3q143 -31 290 -151q69 -57 111 -108q9 -9 11 -22v-1
v-1v-1v-1v-2v-2zM512.5 585q-79.5 0 -136 -56.5t-56.5 -136.5t56.5 -136.5t136 -56.5t135.5 56.5t56 136.5t-56 136.5t-135.5 56.5zM512 295q-40 0 -68 28.5t-28 68.5t28 68.5t68 28.5t68 -28.5t28 -68.5t-28 -68.5t-68 -28.5z" />
    <glyph glyph-name="uniE646" unicode="&#xe646;" horiz-adv-x="1300" 
d="M1209 94h-136l-75 -97l-132 97h-415q-37 1 -63 28.5t-26 62.5v621q0 37 26 63.5t63 26.5h758q38 0 64 -26.5t26 -63.5v-621q0 -38 -26 -64.5t-64 -26.5zM801 225h71v72h-71v-72zM957 710q-45 42 -120 42q-71 0 -114 -38.5t-52 -111.5l65 -8q8 55 35 80t67 25
q42 0 70.5 -28t28.5 -65q0 -20 -10 -37.5t-42.5 -46.5t-45.5 -45q-17 -21 -24 -41q-11 -27 -11 -65q0 -5 1 -19h60q1 39 5 55q5 17 14 30t40 41q46 41 61.5 69.5t15.5 62.5q0 59 -44 100zM687 34v-24q0 -28 -19 -47.5t-46 -19.5h-304l-97 -71l-55 71h-100q-28 0 -47 19.5
t-19 47.5v455q0 27 19 46.5t47 19.5l234 6v-390q-3 -56 19 -80q13 -14 33 -22.5t34 -9.5l14 -1h287zM687 34z" />
    <glyph glyph-name="uniE648" unicode="&#xe648;" 
d="M906 747l-43 1q-6 0 -19.5 1.5t-53.5 12t-84 28.5q-105 42 -168 88l-26 18l-26 -18q-6 -5 -21 -14.5t-58.5 -32.5t-88.5 -41q-44 -18 -84 -28.5t-54 -12t-19 -1.5l-43 -1v-430q0 -52 26.5 -108t67 -103.5t88.5 -91.5t92 -74.5t76.5 -49t43.5 -18.5q10 0 43 18t77 48.5
t92 74.5t88.5 91.5t67 104t26.5 108.5v430zM465 194l-184 155l57 65l118 -99l224 255l66 -57z" />
    <glyph glyph-name="uniE64A" unicode="&#xe64a;" 
d="M818 798h-626q-43 0 -69.5 -38.5t-26.5 -95.5v-398q0 -55 27 -90t69 -35h112v-155q0 -10 8.5 -14.5t17.5 1.5l227 168h259q45 0 78.5 35t33.5 90v398q0 55 -33.5 94.5t-76.5 39.5zM510 264q-11 0 -19 7.5t-8 19.5q0 11 8 19t19 8t19.5 -7.5t8.5 -19.5q0 -11 -8.5 -19
t-19.5 -8zM557 459q-14 -11 -20.5 -27.5t-5.5 -27.5v-10q0 -3 -0.5 -7.5t-7 -12.5t-18 -8t-18 7t-6.5 14l-1 7q0 49 26 81q8 10 23.5 21.5t22 23.5t6.5 37q0 24 -13 37.5t-26 15.5l-13 1h-6q-3 0 -12 -3t-16 -8.5t-12.5 -16.5t-5.5 -26q0 -3 -0.5 -7.5t-7 -12t-18 -7.5
t-17.5 6.5t-7 13.5l-1 7q0 46 25 77.5t79.5 31.5t79 -31.5t24.5 -77.5q-1 -26 -9 -45t-16.5 -27.5t-28.5 -25.5z" />
  </font>
</defs>
</svg>
